<svg id="icons" xmlns="http://www.w3.org/2000/svg" viewBox="0 0 340 340"><path d="M295.982,203.824H74.679a9.618,9.618,0,0,1-9.618-9.618V163.083a9.618,9.618,0,0,1,9.618-9.618H286.364a9.618,9.618,0,0,1,9.618,9.618Z" style="fill:#f47676"/><rect x="182.03" y="153.465" width="8" height="50.358" style="fill:#c14949"/><rect x="242.444" y="153.465" width="8" height="50.358" style="fill:#c14949"/><path d="M65.061,187.148v7.058a9.618,9.618,0,0,0,9.618,9.618h221.3V187.148Z" style="fill:#c14949"/><rect x="121.615" y="153.465" width="8" height="50.358" style="fill:#c14949"/><path d="M310.967,265.276H200.659V203.824H310.967A10.373,10.373,0,0,1,321.341,214.2v40.7A10.374,10.374,0,0,1,310.967,265.276Z" style="fill:#c14949"/><path d="M223.725,237.669A11.6,11.6,0,0,0,212,226.529H200.659a11.352,11.352,0,0,0,11.35-11.566,11.6,11.6,0,0,0-11.727-11.139H150.953c13.783-5.466,12.96-17.423,11.761-22.873a3.586,3.586,0,0,0-3.508-2.808H117.641C100.2,178.062,90.877,187.8,79.069,198.8a41.018,41.018,0,0,1-27.59,10.666H10v71.6H69.951c9.518-.5,19.39,5.467,27.566,9.651a36.016,36.016,0,0,0,16.371,3.936h68.765c15.247-.417,15.669-22.031.377-22.7h18.7c15.286-.435,15.634-22.043.376-22.705h10.268A11.352,11.352,0,0,0,223.725,237.669Z" style="fill:#ffd5bd"/><path d="M320.9,135.78H109.686a9.105,9.105,0,0,0-9.105,9.1v8.58H330v-8.58A9.1,9.1,0,0,0,320.9,135.78Z" style="fill:#88b0ea"/><path d="M330,86.923H100.581V95.5a9.106,9.106,0,0,0,9.105,9.1H320.9A9.105,9.105,0,0,0,330,95.5Z" style="fill:#88b0ea"/><rect x="111.601" y="104.609" width="207.379" height="31.171" style="fill:#eaf5ff"/><path d="M256.6,45.356H58.57a9.622,9.622,0,0,0-9.622,9.622V77.3a9.621,9.621,0,0,0,9.622,9.621H266.216V54.978A9.621,9.621,0,0,0,256.6,45.356Z" style="fill:#e89c52"/><rect x="113.057" y="45.356" width="89.051" height="41.567" style="fill:#ffd071"/><path d="M279.4,250.907a4,4,0,0,1-4-4V222.192a4,4,0,0,1,8,0v24.715A4,4,0,0,1,279.4,250.907Z" style="fill:#fff"/><path d="M258.605,245.15a4,4,0,0,1-4-4v-13.2c.089-5.254,7.911-5.26,8,0v13.2A4,4,0,0,1,258.605,245.15Z" style="fill:#fff"/><path d="M318.98,116.194H238.333a4,4,0,0,0,0,8H318.98Z" style="fill:#c9d4ff"/><path d="M220.91,124.194h-2.138c-5.257-.089-5.257-7.911,0-8h2.137C226.167,116.284,226.168,124.105,220.91,124.194Z" style="fill:#c9d4ff"/><path d="M199.213,116.194H111.6v8h87.612C204.463,124.108,204.476,116.284,199.213,116.194Z" style="fill:#c9d4ff"/><path d="M65.061,193.986a4,4,0,0,1-4-4v-26.9a13.633,13.633,0,0,1,13.618-13.618H286.364a13.633,13.633,0,0,1,13.618,13.618v24.5a4,4,0,0,1-8,0v-24.5a5.624,5.624,0,0,0-5.618-5.618H74.679a5.624,5.624,0,0,0-5.618,5.618v26.9A4,4,0,0,1,65.061,193.986Z" style="fill:#383a49"/><path d="M310.967,269.276H228.328a4,4,0,0,1,0-8h82.639a6.382,6.382,0,0,0,6.375-6.374V214.2a6.382,6.382,0,0,0-6.375-6.374h-82.1a4,4,0,0,1,0-8h82.1A14.39,14.39,0,0,1,325.342,214.2v40.7A14.39,14.39,0,0,1,310.967,269.276Z" style="fill:#383a49"/><path d="M202.107,275.939H163.151a4,4,0,0,1,0-8h38.956c9.693-.258,9.7-14.448,0-14.705-5.263-.092-5.252-7.911,0-8h10.267a7.353,7.353,0,1,0,0-14.705H163.151a4,4,0,0,1,0-8h49.224c18.492.4,20.936,26.452,3.037,30.4C221.381,262.682,213.642,276.256,202.107,275.939Z" style="fill:#383a49"/><path d="M183.029,298.644H113.888A40.2,40.2,0,0,1,95.7,294.27l-11.2-5.714a32.159,32.159,0,0,0-14.552-3.5H10a4,4,0,0,1-4-4v-71.6a4,4,0,0,1,4-4H51.479a36.94,36.94,0,0,0,24.9-9.627c12.564-11.834,22.707-21.758,41.264-21.69h44.272a4,4,0,0,1,3.727,2.547c2.141,5.493,3.308,15.42-2.55,23.133h37.567a15.306,15.306,0,0,1,15.135,12.764,4,4,0,1,1-7.887,1.342,7.326,7.326,0,0,0-7.248-6.106h-49.7a4,4,0,0,1-1.474-7.719c10.817-4.29,10.388-13.478,9.434-17.961H117.642a36.938,36.938,0,0,0-24.9,9.626l-10.983,9.984a44.925,44.925,0,0,1-30.28,11.707H14v63.6H69.951A40.2,40.2,0,0,1,88.14,281.43c7.561,3.8,16.987,9.7,25.748,9.214h69.141a7.315,7.315,0,0,0,7.164-5.684,4,4,0,1,1,7.793,1.805A15.278,15.278,0,0,1,183.029,298.644Z" style="fill:#383a49"/><path d="M330,157.465H313.838c-5.257-.089-5.258-7.91,0-8H326v-4.58a5.11,5.11,0,0,0-5.1-5.1H109.686a5.11,5.11,0,0,0-5.1,5.1v8.58c-.089,5.248-7.888,5.286-8,0v-8.58a13.119,13.119,0,0,1,13.1-13.1H320.9a13.12,13.12,0,0,1,13.1,13.1v8.58A4,4,0,0,1,330,157.465Z" style="fill:#383a49"/><path d="M320.9,108.609H109.686a13.119,13.119,0,0,1-13.1-13.1V86.923a4,4,0,0,1,4-4H330a4,4,0,0,1,4,4V95.5A13.12,13.12,0,0,1,320.9,108.609ZM104.582,90.923V95.5a5.11,5.11,0,0,0,5.1,5.1H320.9a5.11,5.11,0,0,0,5.1-5.1V90.923Z" style="fill:#383a49"/><path d="M318.98,139.78H111.6a4,4,0,0,1-4-4V104.609a4,4,0,0,1,4-4H318.98a4,4,0,0,1,4,4V135.78A4,4,0,0,1,318.98,139.78Zm-203.379-8H314.98V108.609H115.6Z" style="fill:#383a49"/><path d="M83.3,90.923H58.569A13.637,13.637,0,0,1,44.948,77.3V54.978A13.637,13.637,0,0,1,58.569,41.356H256.6a13.638,13.638,0,0,1,13.622,13.622V71.694c-.144,5.279-7.88,5.256-8,0V54.978a5.629,5.629,0,0,0-5.622-5.622H58.569a5.628,5.628,0,0,0-5.621,5.622V77.3a5.628,5.628,0,0,0,5.621,5.621H83.3C88.581,83.015,88.53,90.842,83.3,90.923Z" style="fill:#383a49"/><path d="M202.107,90.923h-89.05a4,4,0,0,1-4-4V45.356a4,4,0,0,1,4-4h89.05a4,4,0,0,1,4,4V86.923A4,4,0,0,1,202.107,90.923Zm-85.05-8h81.05V49.356h-81.05Z" style="fill:#383a49"/><path d="M150.953,207.824H129.615c-5.251-.088-5.262-7.911,0-8h21.338C156.205,199.912,156.215,207.734,150.953,207.824Z" style="fill:#383a49"/><path d="M202.107,253.234H163.151a4,4,0,0,1,0-8h38.956C207.353,245.32,207.374,253.144,202.107,253.234Z" style="fill:#383a49"/></svg>