<?xml version="1.0" encoding="iso-8859-1"?>
<!-- Generator: Adobe Illustrator 19.0.1, SVG Export Plug-In . SVG Version: 6.00 Build 0)  -->
<svg version="1.1" xmlns="http://www.w3.org/2000/svg" xmlns:xlink="http://www.w3.org/1999/xlink" x="0px" y="0px"
	 viewBox="0 0 128 128" style="enable-background:new 0 0 128 128;" xml:space="preserve">
<g id="_x33_">
	<path id="icon_2_" style="fill:#191919;" d="M127.89,27.439c0,0-5.318-1.322-12.808-7.741C108.568,14.112,81.772,6.717,65.518,16
		v74.597c19.322-12.509,43.459-2.282,49.564,3.808c2.659,2.659,5.381,4.469,7.6,5.633v9.535c-2.093-1.023-4.925-2.801-7.741-5.727
		c-6.561-6.829-30.95-17.654-50.932-4.154c-19.967-13.532-44.387-2.691-50.964,4.154c-2.785,2.911-5.633,4.673-7.726,5.712v-9.582
		c2.203-1.164,4.878-2.958,7.49-5.57c6.105-6.089,30.242-16.317,49.564-3.808V16.032C44.041,5.663,21.1,14.033,12.808,19.698
		C5.098,24.969,0,27.439,0,27.439v89.451l3.241-0.755c0.283-0.063,7.096-1.699,13.61-8.481c5.617-5.853,28.117-15.499,45.488-2.518
		l1.652,1.164l1.699-1.196c17.339-12.95,39.84-3.304,45.457,2.549c6.498,6.782,13.311,8.418,13.61,8.481L128,116.89L127.89,27.439z
		 M5.366,38.957c0.944-0.708,23.303-17.591,52.396-9.928c0.834,0.22,1.337,1.086,1.117,1.92c-0.22,0.834-1.07,1.337-1.92,1.117
		c-27.614-7.269-49.453,9.22-49.658,9.394c-0.299,0.22-0.629,0.33-0.96,0.33c-0.472,0-0.944-0.22-1.259-0.614
		C4.563,40.483,4.689,39.492,5.366,38.957z M5.366,51.639c0.944-0.724,23.303-17.591,52.396-9.928
		c0.834,0.22,1.337,1.086,1.117,1.92c-0.22,0.834-1.086,1.337-1.92,1.117c-27.614-7.269-49.453,9.22-49.658,9.394
		c-0.299,0.22-0.629,0.33-0.96,0.33c-0.472,0-0.944-0.22-1.259-0.614C4.563,53.165,4.689,52.174,5.366,51.639z M5.366,64.321
		c0.944-0.724,23.287-17.591,52.396-9.928c0.834,0.22,1.337,1.07,1.117,1.92c-0.22,0.834-1.086,1.337-1.92,1.117
		c-27.567-7.254-49.453,9.22-49.674,9.394c-0.283,0.22-0.614,0.315-0.944,0.315c-0.472,0-0.944-0.205-1.259-0.614
		C4.563,65.847,4.689,64.856,5.366,64.321z M5.366,77.003c0.944-0.724,23.287-17.591,52.396-9.928c0.834,0.22,1.337,1.07,1.117,1.92
		c-0.22,0.834-1.086,1.337-1.92,1.117c-27.567-7.254-49.453,9.22-49.674,9.394c-0.283,0.22-0.614,0.315-0.944,0.315
		c-0.472,0-0.944-0.205-1.259-0.614C4.563,78.513,4.689,77.538,5.366,77.003z M123.815,79.205c-0.315,0.409-0.771,0.614-1.243,0.614
		c-0.346,0-0.677-0.094-0.96-0.315c-0.22-0.173-22.123-16.647-49.674-9.394c-0.834,0.22-1.699-0.283-1.92-1.117
		c-0.22-0.85,0.283-1.699,1.133-1.92c29.093-7.663,51.436,9.205,52.38,9.928C124.224,77.538,124.35,78.513,123.815,79.205z
		 M123.815,66.523c-0.315,0.409-0.771,0.614-1.243,0.614c-0.346,0-0.677-0.094-0.96-0.315c-0.22-0.173-22.123-16.647-49.674-9.394
		c-0.834,0.22-1.699-0.283-1.92-1.117c-0.22-0.85,0.283-1.699,1.133-1.92c29.093-7.663,51.436,9.205,52.38,9.928
		C124.224,64.856,124.35,65.847,123.815,66.523z M123.815,53.841c-0.315,0.409-0.771,0.614-1.243,0.614
		c-0.346,0-0.677-0.094-0.96-0.315c-0.22-0.173-22.107-16.647-49.674-9.394c-0.834,0.22-1.699-0.283-1.92-1.117
		c-0.22-0.834,0.283-1.699,1.133-1.92c29.077-7.663,51.436,9.205,52.38,9.928C124.224,52.174,124.35,53.165,123.815,53.841z
		 M123.815,41.175c-0.315,0.393-0.771,0.614-1.243,0.614c-0.346,0-0.677-0.11-0.96-0.33c-0.22-0.173-22.107-16.647-49.674-9.394
		c-0.834,0.22-1.699-0.267-1.92-1.117c-0.22-0.834,0.283-1.699,1.133-1.92c29.077-7.663,51.436,9.22,52.38,9.928
		C124.224,39.492,124.35,40.483,123.815,41.175z"/>
</g>
<g id="Layer_1">
</g>
</svg>
