<?xml version="1.0" encoding="iso-8859-1"?>
<!-- Generator: Adobe Illustrator 19.0.0, SVG Export Plug-In . SVG Version: 6.00 Build 0)  -->
<svg xmlns="http://www.w3.org/2000/svg" xmlns:xlink="http://www.w3.org/1999/xlink" version="1.1" id="Capa_1" x="0px" y="0px" viewBox="0 0 512 512" style="enable-background:new 0 0 512 512;" xml:space="preserve">
<polygon style="fill:#BA1956;" points="161.723,285.296 125.415,472.18 141.396,504.5 241.396,331.295 "/>
<polygon style="fill:#FF0F47;" points="137.473,271.295 37.473,444.5 109.434,439.859 125.415,472.18 215.415,316.295 "/>
<polygon style="fill:#742466;" points="350.277,285.296 386.585,472.18 370.604,504.5 270.604,331.295 "/>
<g>
	<polygon style="fill:#BA1956;" points="374.527,271.295 474.527,444.5 402.566,439.859 386.585,472.18 296.585,316.295  "/>
	<path style="fill:#BA1956;" d="M434.5,186c0-17.475-8.971-32.847-22.552-41.786c7.292-14.532,7.375-32.33-1.363-47.464   c-8.737-15.134-24.192-23.961-40.424-24.912c-0.951-16.231-9.778-31.686-24.912-40.424c-8.746-5.049-18.379-7.136-27.76-6.605   v322.38c9.381,0.531,19.015-1.555,27.76-6.605c15.134-8.737,23.961-24.192,24.912-40.424c16.231-0.951,31.686-9.778,40.424-24.912   c8.737-15.134,8.655-32.932,1.363-47.464C425.529,218.847,434.5,203.475,434.5,186z"/>
</g>
<path style="fill:#FF0F47;" d="M404.5,186c0-17.475-7.002-32.847-17.603-41.786c5.692-14.532,5.756-32.33-1.064-47.464  s-18.884-23.961-31.553-24.912c-0.742-16.231-7.633-31.686-19.445-40.424c-5.488-4.059-11.424-6.191-17.345-6.605  c-6.852,0.388-13.57,2.164-19.704,5.242C288.847,16.471,273.475,7.5,256,7.5s-32.847,8.971-41.786,22.552  c-14.532-7.292-32.33-7.375-47.464,1.362s-23.961,24.192-24.912,40.424c-16.231,0.951-31.686,9.778-40.424,24.912  s-8.654,32.932-1.362,47.464C86.471,153.153,77.5,168.525,77.5,186s8.971,32.847,22.552,41.786  c-7.292,14.532-7.375,32.33,1.362,47.464s24.192,23.961,40.424,24.912c0.951,16.231,9.778,31.686,24.912,40.424  s32.932,8.654,47.464,1.362C223.153,355.529,238.525,364.5,256,364.5s32.847-8.971,41.786-22.552  c6.134,3.078,12.852,4.854,19.704,5.242c5.921-0.414,11.857-2.546,17.345-6.605c11.813-8.737,18.703-24.192,19.445-40.424  c12.67-0.951,24.733-9.778,31.553-24.912s6.755-32.932,1.064-47.464C397.498,218.847,404.5,203.475,404.5,186z"/>
<path style="fill:#FF415D;" d="M256,77.5v217c59.923,0,108.5-48.577,108.5-108.5S315.923,77.5,256,77.5z"/>
<path style="fill:#FF7472;" d="M334.5,186c0-59.923-35.146-108.5-78.5-108.5c-59.923,0-108.5,48.577-108.5,108.5  S196.077,294.5,256,294.5C299.354,294.5,334.5,245.923,334.5,186z"/>
<path d="M481.022,440.75l-70.979-122.939c-2.07-3.588-6.659-4.817-10.245-2.745c-3.587,2.071-4.816,6.658-2.745,10.245  l63.973,110.803l-57.978-3.739c-3.013-0.199-5.863,1.446-7.205,4.16l-25.75,52.079l-75.781-131.257  c2.119-1.898,4.119-3.949,5.957-6.17c6.403,2.366,13.229,3.6,20.045,3.6c10.034,0,19.954-2.666,28.687-7.707  c14.952-8.632,25.08-23.342,27.93-40.15c16.809-2.851,31.519-12.978,40.15-27.93c8.633-14.952,10.05-32.755,4.113-48.737  C434.325,219.391,442,203.265,442,186s-7.675-33.391-20.807-44.263c5.937-15.982,4.52-33.785-4.113-48.737  c-8.632-14.952-23.342-25.08-40.15-27.93c-2.85-16.809-12.978-31.518-27.93-40.15c-8.733-5.042-18.652-7.707-28.687-7.707  c-6.816,0-13.642,1.234-20.045,3.6C289.396,7.678,273.268,0,256,0s-33.396,7.678-44.269,20.813c-6.403-2.366-13.229-3.6-20.045-3.6  c-10.034,0-19.953,2.665-28.687,7.707c-14.952,8.632-25.08,23.342-27.93,40.15c-16.808,2.85-31.517,12.978-40.15,27.93  s-10.048,32.755-4.112,48.737C77.675,152.609,70,168.735,70,186s7.675,33.391,20.807,44.263  c-5.936,15.982-4.521,33.785,4.112,48.737c4.579,7.93,10.878,14.485,18.282,19.335L30.978,440.75  c-1.383,2.396-1.335,5.357,0.124,7.707c1.459,2.349,4.103,3.702,6.854,3.527l66.973-4.319l29.745,60.159  c1.226,2.479,3.717,4.083,6.481,4.172c0.081,0.002,0.161,0.004,0.242,0.004c2.673,0,5.151-1.425,6.494-3.75l70.979-122.939  c2.071-3.587,0.842-8.174-2.745-10.245c-3.59-2.072-8.175-0.843-10.245,2.745l-63.973,110.803l-25.75-52.079  c-1.342-2.714-4.194-4.36-7.205-4.16l-57.978,3.739l75.781-131.257c2.701,0.885,5.474,1.591,8.314,2.073  c2.85,16.809,12.978,31.518,27.93,40.15c8.733,5.042,18.652,7.707,28.687,7.707c6.816,0,13.642-1.234,20.045-3.6  C222.604,364.322,238.732,372,256,372c9.157,0,17.983-2.178,25.886-6.165L364.11,508.25c1.343,2.325,3.821,3.75,6.494,3.75  c0.08,0,0.162-0.001,0.242-0.004c2.765-0.089,5.256-1.692,6.481-4.172l29.745-60.159l66.973,4.319  c2.76,0.178,5.394-1.179,6.854-3.527C482.357,446.107,482.405,443.146,481.022,440.75z M220.479,337.825  c-1.43-2.172-3.816-3.377-6.27-3.377c-1.135,0-2.283,0.258-3.358,0.797c-5.923,2.972-12.55,4.543-19.164,4.543  c-7.404,0-14.73-1.97-21.187-5.697c-12.418-7.169-20.334-20.017-21.175-34.367c-0.223-3.796-3.252-6.826-7.049-7.048  c-5.356-0.314-10.502-1.615-15.222-3.767c-0.203-0.109-0.407-0.211-0.615-0.3c-7.656-3.64-14.154-9.529-18.53-17.108  c-7.169-12.418-7.601-27.502-1.154-40.35c1.706-3.399,0.598-7.537-2.579-9.628C92.168,213.618,85,200.339,85,186  s7.168-27.618,19.176-35.521c3.177-2.091,4.285-6.229,2.579-9.628c-6.446-12.848-6.015-27.932,1.154-40.35  c7.17-12.418,20.018-20.334,34.367-21.175c3.797-0.223,6.826-3.252,7.049-7.048c0.841-14.35,8.757-27.198,21.175-34.367  c6.456-3.727,13.782-5.697,21.187-5.697c6.614,0,13.241,1.571,19.164,4.543c3.399,1.706,7.537,0.596,9.628-2.58  C228.382,22.168,241.661,15,256,15c14.339,0,27.618,7.168,35.521,19.175c2.091,3.176,6.229,4.285,9.628,2.58  c5.923-2.972,12.55-4.543,19.164-4.543c7.404,0,14.73,1.97,21.187,5.697c12.418,7.169,20.334,20.017,21.175,34.367  c0.223,3.796,3.252,6.826,7.049,7.048c14.35,0.841,27.196,8.757,34.366,21.175c7.17,12.417,7.602,27.501,1.155,40.35  c-1.706,3.399-0.598,7.537,2.579,9.628C419.832,158.382,427,171.661,427,186s-7.168,27.618-19.176,35.521  c-3.177,2.091-4.285,6.229-2.579,9.628c6.446,12.848,6.015,27.932-1.155,40.35s-20.017,20.334-34.366,21.175  c-3.797,0.223-6.826,3.252-7.049,7.048c-0.841,14.35-8.757,27.198-21.175,34.367c-6.456,3.727-13.782,5.697-21.187,5.697  c-6.614,0-13.241-1.571-19.164-4.543c-3.399-1.705-7.537-0.597-9.628,2.58c-2.951,4.483-6.652,8.289-10.876,11.302  c-0.194,0.12-0.383,0.245-0.562,0.379C273.103,354.317,264.752,357,256,357C241.661,357,228.382,349.832,220.479,337.825z"/>
<path d="M372,186c0-25.464-8.101-49.636-23.427-69.902c-2.499-3.303-7.201-3.958-10.506-1.458  c-3.305,2.499-3.957,7.202-1.459,10.506C349.949,142.786,357,163.829,357,186c0,55.691-45.309,101-101,101s-101-45.309-101-101  S200.309,85,256,85c22.171,0,43.214,7.051,60.854,20.391c3.304,2.499,8.007,1.846,10.506-1.458  c2.498-3.304,1.845-8.008-1.459-10.506C305.636,78.101,281.464,70,256,70c-63.963,0-116,52.038-116,116s52.037,116,116,116  S372,249.962,372,186z"/>
<g>
</g>
<g>
</g>
<g>
</g>
<g>
</g>
<g>
</g>
<g>
</g>
<g>
</g>
<g>
</g>
<g>
</g>
<g>
</g>
<g>
</g>
<g>
</g>
<g>
</g>
<g>
</g>
<g>
</g>
</svg>
